<svg width="13" height="12" viewBox="0 0 13 12" fill="none" xmlns="http://www.w3.org/2000/svg">
<path fill-rule="evenodd" clip-rule="evenodd" d="M0.375 1.10823C0.375 1.0619 0.513641 1.01557 0.559853 1.01557C1.16062 0.969238 2.03869 0.969238 2.96292 0.969238C5.50461 0.969238 6.52128 2.35923 6.52128 4.16623C6.52128 6.5292 4.81144 7.54851 2.73186 7.54851C2.36218 7.54851 2.26974 7.54851 1.99243 7.54851V11.1161C1.99243 11.2088 1.94625 11.2088 1.90002 11.2088H0.46743C0.375 11.2088 0.375 11.1625 0.375 11.1161V1.10823ZM1.99243 6.01951C2.22349 6.01951 2.36218 6.01951 2.73186 6.01951C3.79471 6.01951 4.81144 5.64886 4.81144 4.16623C4.81144 3.00787 4.07202 2.40556 2.87048 2.40556C2.5008 2.40556 2.13105 2.40556 1.99243 2.45189V6.01951ZM9.9872 4.90752C9.24785 4.90752 9.01679 5.27822 9.01679 5.60256C9.01679 5.9269 9.2016 6.15856 10.1721 6.66818C11.6047 7.36322 12.0668 8.0582 12.0668 9.03121C12.0668 10.5138 10.9577 11.3015 9.43265 11.3015C8.64705 11.3015 7.95387 11.1161 7.53794 10.8845C7.49176 10.8382 7.44551 10.7918 7.44551 10.7455V9.40185C7.44551 9.30917 7.49176 9.26287 7.53794 9.30917C8.13875 9.67981 8.78573 9.86517 9.38647 9.86517C10.1259 9.86517 10.4031 9.54083 10.4031 9.12382C10.4031 8.79955 10.1721 8.47521 9.24785 8.01183C7.95387 7.36322 7.39932 6.76085 7.39932 5.69524C7.39932 4.49057 8.32355 3.51756 9.94102 3.51756C10.7266 3.51756 11.2812 3.65654 11.6047 3.79552C11.6971 3.8419 11.6971 3.93458 11.6971 3.98088V5.23185C11.6971 5.32453 11.6509 5.3709 11.5585 5.32453C11.1887 5.04657 10.588 4.90752 9.9872 4.90752Z" fill="#00C8FF"/>
</svg>
